<?xml version="1.0" encoding="utf-8"?>
<!-- Generator: Adobe Illustrator 19.1.0, SVG Export Plug-In . SVG Version: 6.00 Build 0)  -->
<svg version="1.1" id="レイヤー_1" xmlns="http://www.w3.org/2000/svg" xmlns:xlink="http://www.w3.org/1999/xlink" x="0px"
	 y="0px" viewBox="-302 348.4 143.9 143.9" style="enable-background:new -302 348.4 143.9 143.9;" xml:space="preserve">
<style type="text/css">
	.st0{fill:#464342;}
</style>
<g transform="matrix(1.0755 0 0 1.0755 -3.5103 -1.6684)">
	<path class="st0" d="M-210.6,334.9c15,0,28.7,5.8,38.9,15.2c-5-0.1-10,2.9-10.2,9.7c-0.4,13.8,16.5,16.8,7.4,44.6l-7.6,23
		l-20.6-60.6c-0.3-0.9,0.1-1.5,1.2-1.5h5.8c0.3,0,0.5-0.3,0.5-0.6v-3.4c0-0.3-0.2-0.6-0.5-0.6c-11,0.5-22,0.5-32.8,0
		c-0.3,0-0.5,0.3-0.5,0.6v3.4c0,0.3,0.2,0.6,0.5,0.6h5.8c1.3,0,1.7,0.4,2,1.3l8.5,23.1l-12.7,38.4l-20.9-61.6
		c-0.3-0.8,0.1-1.2,0.8-1.2h6.7c0.3,0,0.5-0.3,0.5-0.6v-3.4c0-0.3-0.2-0.6-0.5-0.6c-7,0.4-14,0.4-20.5,0.5
		C-248.7,345.3-230.9,334.9-210.6,334.9L-210.6,334.9L-210.6,334.9z M-160,365c4.4,8.1,6.9,17.5,6.9,27.4
		c0,21.8-12.1,40.7-29.9,50.5l17.9-50.8C-162.3,384.2-159.7,373.6-160,365L-160,365L-160,365z M-191.3,446.6
		c-6,2.1-12.5,3.3-19.3,3.3c-5.8,0-11.4-0.9-16.7-2.5l17.7-50.8L-191.3,446.6L-191.3,446.6L-191.3,446.6z M-235.2,444.4
		c-19.5-9.2-32.9-29.1-32.9-52c0-8.5,1.9-16.6,5.2-23.9L-235.2,444.4L-235.2,444.4L-235.2,444.4z M-210.6,329.5
		c34.8,0,62.9,28.2,62.9,62.9s-28.2,62.9-62.9,62.9s-62.9-28.2-62.9-62.9S-245.4,329.5-210.6,329.5z M-210.6,325.5
		c37,0,66.9,30,66.9,66.9s-30,66.9-66.9,66.9s-66.9-30-66.9-66.9S-247.6,325.5-210.6,325.5L-210.6,325.5z"/>
</g>
</svg>
